# xmcd
#
# Track frame offsets:
#	150
#	12145
#	23437
#	30527
#	42640
#	56460
#	66955
#	78087
#	90525
#	105452
#	114087
#	127440
#	146595
#	157987
#	172430
#	196080
#	212322
#	228275
#	245280
#	257630
#
# Disc length: 3639 seconds
#
# Revision: 5
# Processed by: cddbd v1.5.2PL0 Copyright (c) Steve Scherf et al.
# Submitted via: audiograbber 1.83.01
#
DISCID=fd0e3514
DTITLE=Various Artist - Delphonic Sounds Today!
DYEAR=1999
DGENRE=Rock
TTITLE0=Brian Jonestown Massacre  - I Fought The Law (The Bobby Fuller Four)
TTITLE1=Liquor Giants - Hippy Hippy Shake (Chan Romero)
TTITLE2=Man Or Astroman? - Yo Yo's Pad (Yo Yo Hash)
TTITLE3=Tiki Tones - The Slauson Shuffle (The Romancers)
TTITLE4=Single Bullet Theory - My Lovin' Baby (The Beauchemins)
TTITLE5=Neil Mooney - Hitch Hiker (Bobby Curtola)
TTITLE6=Russell Scott and His Red Hots - Come On, Let's Go (Ritchie Valens)
TTITLE7=Cloud Eleven - Things Will Work Out Fine (Beauregard Ajax)
TTITLE8=Wondermints - Full Moon (Tropical Blend) (Eden Ahbez)
TTITLE9=Mello Cads  - An Afternoon Affair (Verrill Keene)
TTITLE10=Elliot Easton's Tiki Gods - Bullwinkle (Part 2) (The Centurions)
TTITLE11=Jigsaw Seen - Luci Baines (The American Four feat. Arthur Lee Of Love)
TTITLE12=Dekes Of Hazzard - The World's Greatest Sinner (Baby Ray and The Ferns w
TTITLE12=ith Frank Zappa )
TTITLE13=Negro Problem - The Magic Touch (The Bobby Fuller Four)
TTITLE14=Baby Lemonade - All In The Run Of A Day (Barry White)
TTITLE15=Davie Allan and The Arrows  - Our Favorite Martian (The Bobby Fuller Fou
TTITLE15=r)
TTITLE16=Wiskey Biscuit - When I Did The Mashed Potatoes With You (Larry Bright
TTITLE16=)
TTITLE17=Nan Vernon - A New Shade Of Blue (The Bobby Fuller Four)
TTITLE18=Los Straitjackets - Surf Rider (The Lively Ones)
TTITLE19=Elliot Kendall - Donna (Ritchie Valens)
EXTD=
EXTT0=
EXTT1=
EXTT2=
EXTT3=
EXTT4=
EXTT5=
EXTT6=
EXTT7=
EXTT8=
EXTT9=
EXTT10=
EXTT11=
EXTT12=
EXTT13=
EXTT14=
EXTT15=
EXTT16=
EXTT17=
EXTT18=
EXTT19=
PLAYORDER=
